<svg width="160" height="160" viewBox="0 0 160 160" fill="none" xmlns="http://www.w3.org/2000/svg">
<circle cx="80" cy="80" r="80" fill="#121212"/>
<path d="M122.375 88.75C122.375 93.5833 119.542 98.9583 113.875 104.875C112.542 106.208 107.292 110.833 98.125 118.75C92.4583 123.667 89.625 127.292 89.625 129.625C89.625 131.792 91.1667 134.167 94.25 136.75C92.0833 140.667 89.4583 142.958 86.375 143.625C84.2083 143.542 82.3333 142.458 80.75 140.375C79.25 138.375 78.5 136.25 78.5 134C78.5 130.5 81.25 126.333 86.75 121.5C91.9167 117 97.0833 112.542 102.25 108.125C107.75 102.208 110.5 96.25 110.5 90.25C110.5 84.5833 108.417 79.5 104.25 75C100.167 70.4167 95.3333 68.125 89.75 68.125C84.1667 68.125 78.75 70.4167 73.5 75C74.25 79.1667 74.625 82.1667 74.625 84C74.625 85.8333 73 88.5 69.75 92C66.6667 94.6667 63.5833 97.3333 60.5 100V100.375C60.5 101.292 63.0417 102.75 68.125 104.75C72.9583 106.75 76.0417 107.75 77.375 107.75C79.0417 107.75 81.125 107.167 83.625 106C85.5417 104.917 87.5 103.875 89.5 102.875L90.75 104.625C90.5 106.208 87.5 109.167 81.75 113.5C78.4167 115.75 75.125 118.042 71.875 120.375C70.625 120.042 66.9167 118.375 60.75 115.375C56.25 113.292 52.375 112.25 49.125 112.25C45.5417 112.25 42.4583 112.833 39.875 114L38.375 112.125C39.5417 110.792 42.2917 108.5 46.625 105.25C51.4583 101.667 54.8333 98.9167 56.75 97C60 93.75 61.625 90.9167 61.625 88.5C61.625 85.0833 58.75 80.0417 53 73.375C47.25 66.7083 44.375 61.5 44.375 57.75C44.375 52.25 48.4167 45.75 56.5 38.25C64.6667 30.6667 71.5417 26.875 77.125 26.875C79.625 26.875 83.125 27.875 87.625 29.875C92.125 31.875 95.625 32.875 98.125 32.875C98.9583 32.875 100 32.2083 101.25 30.875C102.583 29.5417 103.5 28.7917 104 28.625L105.625 31C105.458 33.25 100.833 37.375 91.75 43.375H89.875C87.5417 43.375 84.125 42.5 79.625 40.75C75.2083 39 71.7917 38.125 69.375 38.125C62.5417 38.125 58.0833 41.875 56 49.375C57.1667 53.4583 59.1667 57.25 62 60.75C63.3333 62.4167 66.3333 65.5833 71 70.25C84.25 59.5833 91.7917 54.25 93.625 54.25C101.958 54.25 108.958 58.0417 114.625 65.625C119.792 72.5417 122.375 80.25 122.375 88.75Z" fill="white"/>
</svg>
